<?xml version="1.0" encoding="utf-8"?>
<!-- Generator: Adobe Illustrator 18.1.1, SVG Export Plug-In . SVG Version: 6.00 Build 0)  -->
<svg version="1.1" id="Layer_1" xmlns="http://www.w3.org/2000/svg" xmlns:xlink="http://www.w3.org/1999/xlink" x="0px" y="0px"
	 viewBox="0 0 256 256" enable-background="new 0 0 256 256" xml:space="preserve">
<g>
	<path fill="#FFFFFF" d="M201,72.8c-1.7-4.4-3.7-7.5-7-10.8c-3.3-3.3-6.4-5.3-10.8-7c-3.3-1.3-8.3-2.8-17.4-3.2
		c-9.9-0.4-12.8-0.5-37.8-0.5c-25,0-28,0.1-37.8,0.5c-9.1,0.4-14.1,1.9-17.4,3.2c-4.4,1.7-7.5,3.7-10.8,7c-3.3,3.3-5.3,6.4-7,10.8
		c-1.3,3.3-2.8,8.3-3.2,17.4c-0.4,9.9-0.5,12.8-0.5,37.8s0.1,28,0.5,37.8c0.4,9.1,1.9,14.1,3.2,17.4c1.7,4.4,3.7,7.5,7,10.8
		c3.3,3.3,6.4,5.3,10.8,7c3.3,1.3,8.3,2.8,17.4,3.2v0c9.9,0.5,12.8,0.5,37.8,0.5c25,0,28-0.1,37.8-0.5c9.1-0.4,14.1-1.9,17.4-3.2
		c4.4-1.7,7.5-3.7,10.8-7s5.3-6.4,7-10.8c1.3-3.3,2.8-8.3,3.2-17.4c0.5-9.9,0.5-12.8,0.5-37.8c0-25-0.1-28-0.5-37.8
		C203.8,81,202.3,76.1,201,72.8z M128,176.1c-26.6,0-48.1-21.5-48.1-48.1h0c0-26.6,21.5-48.1,48.1-48.1s48.1,21.5,48.1,48.1
		S154.6,176.1,128,176.1z M178,89.3c-6.2,0-11.2-5-11.2-11.2c0-6.2,5-11.2,11.2-11.2h0c6.2,0,11.2,5,11.2,11.2
		C189.2,84.2,184.2,89.3,178,89.3z"/>
	<path fill="#FFFFFF" d="M128,96.8c-17.2,0-31.2,14-31.2,31.2c0,17.2,14,31.2,31.2,31.2s31.2-14,31.2-31.2
		C159.2,110.8,145.2,96.8,128,96.8z"/>
	<path fill="#FFFFFF" d="M253.1,65.9c-0.7-15-3.2-23.1-5.3-28.5c-2.8-7.2-6.1-12.3-11.5-17.7c-5.4-5.4-10.5-8.7-17.7-11.5
		c-5.4-2.1-13.6-4.6-28.5-5.3C173.9,2.2,169,2,128,2C87,2,82.1,2.1,65.9,2.9c-15,0.7-23.1,3.2-28.5,5.3c-7.2,2.8-12.3,6.1-17.7,11.5
		C14.3,25.1,11,30.2,8.2,37.4c-2.1,5.4-4.6,13.6-5.3,28.5C2.2,82.1,2,87,2,128c0,41,0.1,45.9,0.9,62.1c0.7,15,3.2,23.1,5.3,28.5
		c2.8,7.2,6.1,12.3,11.5,17.7c5.4,5.4,10.5,8.7,17.7,11.5c5.4,2.1,13.6,4.6,28.5,5.3C82.1,253.9,87,254,128,254
		c41,0,45.9-0.1,62.1-0.9c15-0.7,23.1-3.2,28.5-5.3c7.2-2.8,12.3-6.1,17.7-11.5c5.4-5.4,8.7-10.5,11.5-17.7
		c2.1-5.4,4.6-13.6,5.3-28.5c0.7-16.2,0.9-21.1,0.9-62.1C254,87,253.9,82.1,253.1,65.9z M221.1,166.6c-0.4,10-2,16.8-4.3,22.7
		c-2.4,6.2-5.6,11.4-10.8,16.6c-5.2,5.2-10.4,8.4-16.6,10.8c-6,2.3-12.8,3.9-22.7,4.3c-10,0.5-13.2,0.6-38.6,0.6
		c-25.4,0-28.6-0.1-38.6-0.6c-10-0.5-16.8-2-22.7-4.3c-6.2-2.4-11.4-5.6-16.6-10.8c-5.2-5.2-8.4-10.4-10.8-16.6
		c-2.3-6-3.9-12.8-4.3-22.7c-0.5-10-0.6-13.2-0.6-38.6c0-25.4,0.1-28.6,0.6-38.6c0.5-10,2-16.8,4.3-22.7c2.4-6.2,5.6-11.4,10.8-16.6
		s10.4-8.4,16.6-10.8c5.9-2.3,12.8-3.9,22.7-4.3h0c10-0.5,13.2-0.6,38.6-0.6c25.4,0,28.6,0.1,38.6,0.6c10,0.4,16.8,2,22.7,4.3
		c6.1,2.4,11.4,5.6,16.6,10.8c5.2,5.2,8.4,10.4,10.8,16.6c2.3,5.9,3.9,12.8,4.3,22.7c0.5,10,0.6,13.2,0.6,38.6
		C221.6,153.4,221.5,156.6,221.1,166.6z"/>
</g>
</svg>
