<?xml version="1.0" encoding="utf-8"?>
<!-- Generator: Adobe Illustrator 18.1.1, SVG Export Plug-In . SVG Version: 6.00 Build 0)  -->
<svg version="1.1" id="Layer_1" xmlns="http://www.w3.org/2000/svg" xmlns:xlink="http://www.w3.org/1999/xlink" x="0px" y="0px"
	 viewBox="0 0 256 256" enable-background="new 0 0 256 256" xml:space="preserve">
<path fill="#FFFFFF" d="M127,2C57.4,2,1,58.4,1,128s56.4,126,126,126s126-56.4,126-126C253,58.4,196.6,2,127,2z M93.4,188.9H65.7
	V99.6h27.7V188.9z M79.4,87.9c-9,0-16.4-7.4-16.4-16.5c0-9.1,7.3-16.5,16.4-16.5s16.4,7.4,16.4,16.5C95.8,80.5,88.5,87.9,79.4,87.9z
	 M197.1,188.9h-27.5V142c0-12.9-4.9-20.1-15.1-20.1c-11.1,0-16.9,7.5-16.9,20.1v46.9h-26.5V99.6h26.5v12c0,0,8-14.8,26.9-14.8
	c19,0,32.5,11.6,32.5,35.5L197.1,188.9L197.1,188.9z"/>
</svg>
