<?xml version="1.0" encoding="utf-8"?>
<!-- Generator: Adobe Illustrator 18.1.1, SVG Export Plug-In . SVG Version: 6.00 Build 0)  -->
<svg version="1.1" id="Layer_1" xmlns="http://www.w3.org/2000/svg" xmlns:xlink="http://www.w3.org/1999/xlink" x="0px" y="0px"
	 viewBox="0 0 256 256" enable-background="new 0 0 256 256" xml:space="preserve">
<g>
	<path fill="#FFFFFF" d="M239.1,213.4c-13.4,14.2-29.4,24.6-47.9,31.2c-18.5,6.6-38,9.8-58.6,9.8c-19.6,0-37.5-3.1-53.6-9.3
		c-16.1-6.2-29.9-14.8-41.2-25.9c-11.4-11.1-20.3-24.4-26.6-39.8S1.9,147,1.9,128.7c0-18.1,3.4-34.8,10.3-50.1s16.2-28.7,28.1-40
		S66,18.5,81.9,12c15.8-6.4,32.8-9.6,50.8-9.6c15.5,0,30.6,2.2,45.2,6.8c14.6,4.5,27.6,11.3,38.9,20.3c11.3,9.1,20.3,20.3,27.1,33.9
		s10.1,29.5,10.1,47.8c0,13.6-1.9,25.5-5.6,35.9c-3.8,10.4-8.8,19.1-15.1,26.1c-6.3,7-13.4,12.3-21.5,15.8
		c-8.1,3.5-16.6,5.2-25.5,5.2c-9.1,0-16.4-2.1-21.9-6.4c-5.5-4.3-8.2-9.7-8.2-16.3h-1.7c-3.4,5.4-8.7,10.6-15.8,15.4
		c-7.1,4.8-15.8,7.3-26,7.3c-15.5,0-27.5-5.1-35.9-15.2s-12.7-23.3-12.7-39.7c0-9.5,1.6-18.8,4.8-28.1c3.2-9.3,7.8-17.5,13.7-24.8
		c5.9-7.2,13-13,21.2-17.4c8.2-4.4,17.3-6.6,27.4-6.6c8.7,0,16,1.8,21.9,5.4c5.9,3.6,9.8,8,11.6,13.2h0.3l2.8-13.6h30.5l-13.4,64.1
		c-0.4,3.2-1.1,6.6-1.9,10.5c-0.8,3.8-1.2,7.4-1.2,10.9c0,3.8,0.7,7,2.2,9.7c1.5,2.6,4.4,3.9,8.7,3.9c8.9,0,16.3-4.7,22.1-14.2
		c5.8-9.5,8.7-22.2,8.7-38.2c0-13.6-2.3-25.6-6.9-36.1c-4.6-10.5-10.9-19.3-19-26.4c-8.1-7.1-17.8-12.5-28.9-16.1
		c-11.2-3.6-23.4-5.4-36.6-5.4c-14.4,0-27.6,2.5-39.5,7.6s-22.2,12.1-30.7,21c-8.4,8.9-15,19.4-19.7,31.5c-4.7,12-7.1,25.1-7.1,39.1
		c0,14.9,2.5,28.4,7.4,40.3s11.8,22.2,20.7,30.7c8.9,8.5,19.5,15,31.8,19.5s25.9,6.8,40.7,6.8c18.5,0,34.4-2.9,47.8-8.8
		c13.3-5.9,25.6-14,36.8-24.4L239.1,213.4z M132,90.2c-5.5,0-10.3,1.6-14.4,4.7c-4.1,3.2-7.6,7.1-10.5,12c-2.9,4.8-5,10.2-6.5,16.1
		c-1.5,5.8-2.2,11.5-2.2,16.9c0,2.7,0.3,5.6,0.8,8.7c0.6,3,1.7,5.9,3.4,8.5c1.7,2.6,3.9,4.7,6.7,6.4s6.4,2.5,11,2.5
		c6.2,0,11.4-1.5,15.8-4.6c4.3-3,7.9-6.9,10.6-11.5c2.8-4.6,4.7-9.7,6-15.1c1.2-5.4,1.9-10.4,1.9-14.9c0-3.6-0.3-7.1-1-10.7
		c-0.7-3.5-1.9-6.6-3.6-9.5c-1.7-2.8-4.1-5.1-7-6.9C140,91.1,136.3,90.2,132,90.2z"/>
</g>
</svg>
